<mxfile host="app.diagrams.net" modified="2020-05-07T08:04:01.194Z" agent="5.0 (Macintosh; Intel Mac OS X 10_13_6) AppleWebKit/537.36 (KHTML, like Gecko) Chrome/81.0.4044.138 Safari/537.36" etag="UPeSKfUAzN9GKNW2bEa2" version="13.0.8" type="github">
  <diagram id="C5RBs43oDa-KdzZeNtuy" name="Page-1">
    <mxGraphModel dx="1186" dy="669" grid="1" gridSize="10" guides="1" tooltips="1" connect="1" arrows="1" fold="1" page="1" pageScale="1" pageWidth="827" pageHeight="1169" math="0" shadow="0">
      <root>
        <mxCell id="WIyWlLk6GJQsqaUBKTNV-0" />
        <mxCell id="WIyWlLk6GJQsqaUBKTNV-1" parent="WIyWlLk6GJQsqaUBKTNV-0" />
        <mxCell id="WIyWlLk6GJQsqaUBKTNV-2" value="" style="rounded=0;html=1;jettySize=auto;orthogonalLoop=1;fontSize=11;endArrow=block;endFill=0;endSize=8;strokeWidth=1;shadow=0;labelBackgroundColor=none;edgeStyle=orthogonalEdgeStyle;exitX=0.5;exitY=1;exitDx=0;exitDy=0;" parent="WIyWlLk6GJQsqaUBKTNV-1" source="cNULXydj7wnu0Ac0nQnT-0" edge="1">
          <mxGeometry relative="1" as="geometry">
            <mxPoint x="390" y="130" as="targetPoint" />
          </mxGeometry>
        </mxCell>
        <mxCell id="WIyWlLk6GJQsqaUBKTNV-3" value="Fetch Transaction Info" style="rounded=1;whiteSpace=wrap;html=1;fontSize=12;glass=0;strokeWidth=1;shadow=0;" parent="WIyWlLk6GJQsqaUBKTNV-1" vertex="1">
          <mxGeometry x="322" y="220" width="120" height="40" as="geometry" />
        </mxCell>
        <mxCell id="WIyWlLk6GJQsqaUBKTNV-5" value="No" style="edgeStyle=orthogonalEdgeStyle;rounded=0;html=1;jettySize=auto;orthogonalLoop=1;fontSize=11;endArrow=block;endFill=0;endSize=8;strokeWidth=1;shadow=0;labelBackgroundColor=none;entryX=0;entryY=0.5;entryDx=0;entryDy=0;entryPerimeter=0;" parent="WIyWlLk6GJQsqaUBKTNV-1" source="WIyWlLk6GJQsqaUBKTNV-6" target="cNULXydj7wnu0Ac0nQnT-15" edge="1">
          <mxGeometry y="10" relative="1" as="geometry">
            <mxPoint as="offset" />
            <mxPoint x="520" y="330" as="targetPoint" />
          </mxGeometry>
        </mxCell>
        <mxCell id="WIyWlLk6GJQsqaUBKTNV-6" value="Transaction is Present?" style="rhombus;whiteSpace=wrap;html=1;shadow=0;fontFamily=Helvetica;fontSize=12;align=center;strokeWidth=1;spacing=6;spacingTop=-4;" parent="WIyWlLk6GJQsqaUBKTNV-1" vertex="1">
          <mxGeometry x="332" y="290" width="100" height="80" as="geometry" />
        </mxCell>
        <mxCell id="WIyWlLk6GJQsqaUBKTNV-12" value="Read the Vending machine status" style="rounded=1;whiteSpace=wrap;html=1;fontSize=12;glass=0;strokeWidth=1;shadow=0;" parent="WIyWlLk6GJQsqaUBKTNV-1" vertex="1">
          <mxGeometry x="322" y="400" width="120" height="40" as="geometry" />
        </mxCell>
        <mxCell id="cNULXydj7wnu0Ac0nQnT-0" value="Request start processing in Job" style="ellipse;whiteSpace=wrap;html=1;" vertex="1" parent="WIyWlLk6GJQsqaUBKTNV-1">
          <mxGeometry x="330" y="20" width="120" height="80" as="geometry" />
        </mxCell>
        <mxCell id="cNULXydj7wnu0Ac0nQnT-1" value="Transaction ID&lt;br&gt;&amp;nbsp;is the input" style="shape=parallelogram;perimeter=parallelogramPerimeter;whiteSpace=wrap;html=1;" vertex="1" parent="WIyWlLk6GJQsqaUBKTNV-1">
          <mxGeometry x="322" y="130" width="120" height="60" as="geometry" />
        </mxCell>
        <mxCell id="cNULXydj7wnu0Ac0nQnT-3" value="" style="rounded=0;html=1;jettySize=auto;orthogonalLoop=1;fontSize=11;endArrow=block;endFill=0;endSize=8;strokeWidth=1;shadow=0;labelBackgroundColor=none;edgeStyle=orthogonalEdgeStyle;exitX=0.5;exitY=1;exitDx=0;exitDy=0;" edge="1" parent="WIyWlLk6GJQsqaUBKTNV-1">
          <mxGeometry relative="1" as="geometry">
            <mxPoint x="376" y="190" as="sourcePoint" />
            <mxPoint x="386" y="220" as="targetPoint" />
            <Array as="points">
              <mxPoint x="386" y="190" />
            </Array>
          </mxGeometry>
        </mxCell>
        <mxCell id="cNULXydj7wnu0Ac0nQnT-11" value="" style="rounded=0;html=1;jettySize=auto;orthogonalLoop=1;fontSize=11;endArrow=block;endFill=0;endSize=8;strokeWidth=1;shadow=0;labelBackgroundColor=none;edgeStyle=orthogonalEdgeStyle;entryX=0.75;entryY=0;entryDx=0;entryDy=0;" edge="1" parent="WIyWlLk6GJQsqaUBKTNV-1" target="cNULXydj7wnu0Ac0nQnT-26">
          <mxGeometry x="0.3333" y="20" relative="1" as="geometry">
            <mxPoint as="offset" />
            <mxPoint x="529" y="530" as="sourcePoint" />
            <mxPoint x="529.4100000000001" y="590" as="targetPoint" />
            <Array as="points">
              <mxPoint x="529" y="540" />
              <mxPoint x="412" y="540" />
            </Array>
          </mxGeometry>
        </mxCell>
        <mxCell id="cNULXydj7wnu0Ac0nQnT-13" value="" style="rounded=0;html=1;jettySize=auto;orthogonalLoop=1;fontSize=11;endArrow=block;endFill=0;endSize=8;strokeWidth=1;shadow=0;labelBackgroundColor=none;edgeStyle=orthogonalEdgeStyle;exitX=0.5;exitY=1;exitDx=0;exitDy=0;" edge="1" parent="WIyWlLk6GJQsqaUBKTNV-1">
          <mxGeometry relative="1" as="geometry">
            <mxPoint x="381.5" y="370" as="sourcePoint" />
            <mxPoint x="381.5" y="400" as="targetPoint" />
          </mxGeometry>
        </mxCell>
        <mxCell id="cNULXydj7wnu0Ac0nQnT-24" value="Yes" style="edgeLabel;html=1;align=center;verticalAlign=middle;resizable=0;points=[];" vertex="1" connectable="0" parent="cNULXydj7wnu0Ac0nQnT-13">
          <mxGeometry x="-0.5333" y="1" relative="1" as="geometry">
            <mxPoint as="offset" />
          </mxGeometry>
        </mxCell>
        <mxCell id="cNULXydj7wnu0Ac0nQnT-14" value="" style="rounded=0;html=1;jettySize=auto;orthogonalLoop=1;fontSize=11;endArrow=block;endFill=0;endSize=8;strokeWidth=1;shadow=0;labelBackgroundColor=none;edgeStyle=orthogonalEdgeStyle;exitX=0.5;exitY=1;exitDx=0;exitDy=0;" edge="1" parent="WIyWlLk6GJQsqaUBKTNV-1">
          <mxGeometry relative="1" as="geometry">
            <mxPoint x="381.5" y="262" as="sourcePoint" />
            <mxPoint x="381.5" y="292" as="targetPoint" />
          </mxGeometry>
        </mxCell>
        <mxCell id="cNULXydj7wnu0Ac0nQnT-15" value="Update UI on vending complete" style="shape=display;whiteSpace=wrap;html=1;" vertex="1" parent="WIyWlLk6GJQsqaUBKTNV-1">
          <mxGeometry x="670" y="300" width="130" height="60" as="geometry" />
        </mxCell>
        <mxCell id="cNULXydj7wnu0Ac0nQnT-19" value="" style="rounded=0;html=1;jettySize=auto;orthogonalLoop=1;fontSize=11;endArrow=block;endFill=0;endSize=8;strokeWidth=1;shadow=0;labelBackgroundColor=none;edgeStyle=orthogonalEdgeStyle;exitX=0.5;exitY=1;exitDx=0;exitDy=0;" edge="1" parent="WIyWlLk6GJQsqaUBKTNV-1">
          <mxGeometry relative="1" as="geometry">
            <mxPoint x="381.5" y="439" as="sourcePoint" />
            <mxPoint x="381.5" y="469" as="targetPoint" />
          </mxGeometry>
        </mxCell>
        <mxCell id="cNULXydj7wnu0Ac0nQnT-20" value="If any doors &lt;br&gt;are open and is&lt;br&gt;&amp;nbsp;not ready" style="rhombus;whiteSpace=wrap;html=1;shadow=0;fontFamily=Helvetica;fontSize=12;align=center;strokeWidth=1;spacing=6;spacingTop=-4;" vertex="1" parent="WIyWlLk6GJQsqaUBKTNV-1">
          <mxGeometry x="332" y="470" width="100" height="80" as="geometry" />
        </mxCell>
        <mxCell id="cNULXydj7wnu0Ac0nQnT-21" value="Close all the Doors" style="rounded=1;whiteSpace=wrap;html=1;fontSize=12;glass=0;strokeWidth=1;shadow=0;" vertex="1" parent="WIyWlLk6GJQsqaUBKTNV-1">
          <mxGeometry x="470" y="490" width="120" height="40" as="geometry" />
        </mxCell>
        <mxCell id="cNULXydj7wnu0Ac0nQnT-25" value="Yes" style="edgeStyle=orthogonalEdgeStyle;rounded=0;html=1;jettySize=auto;orthogonalLoop=1;fontSize=11;endArrow=block;endFill=0;endSize=8;strokeWidth=1;shadow=0;labelBackgroundColor=none;entryX=0;entryY=0.5;entryDx=0;entryDy=0;exitX=1;exitY=0.5;exitDx=0;exitDy=0;" edge="1" parent="WIyWlLk6GJQsqaUBKTNV-1" source="cNULXydj7wnu0Ac0nQnT-20" target="cNULXydj7wnu0Ac0nQnT-21">
          <mxGeometry y="10" relative="1" as="geometry">
            <mxPoint as="offset" />
            <mxPoint x="442" y="340" as="sourcePoint" />
            <mxPoint x="680" y="340" as="targetPoint" />
          </mxGeometry>
        </mxCell>
        <mxCell id="cNULXydj7wnu0Ac0nQnT-26" value="Read the Vending machine status" style="rounded=1;whiteSpace=wrap;html=1;fontSize=12;glass=0;strokeWidth=1;shadow=0;" vertex="1" parent="WIyWlLk6GJQsqaUBKTNV-1">
          <mxGeometry x="322" y="580" width="120" height="40" as="geometry" />
        </mxCell>
        <mxCell id="cNULXydj7wnu0Ac0nQnT-29" value="" style="rounded=0;html=1;jettySize=auto;orthogonalLoop=1;fontSize=11;endArrow=block;endFill=0;endSize=8;strokeWidth=1;shadow=0;labelBackgroundColor=none;edgeStyle=orthogonalEdgeStyle;exitX=0.5;exitY=1;exitDx=0;exitDy=0;entryX=0.5;entryY=0;entryDx=0;entryDy=0;" edge="1" parent="WIyWlLk6GJQsqaUBKTNV-1" source="cNULXydj7wnu0Ac0nQnT-20" target="cNULXydj7wnu0Ac0nQnT-26">
          <mxGeometry relative="1" as="geometry">
            <mxPoint x="391.4999999999998" y="451" as="sourcePoint" />
            <mxPoint x="391.4999999999998" y="481" as="targetPoint" />
          </mxGeometry>
        </mxCell>
        <mxCell id="cNULXydj7wnu0Ac0nQnT-30" value="If no doors &lt;br&gt;are open and is&lt;br&gt;&amp;nbsp;ready" style="rhombus;whiteSpace=wrap;html=1;shadow=0;fontFamily=Helvetica;fontSize=12;align=center;strokeWidth=1;spacing=6;spacingTop=-4;" vertex="1" parent="WIyWlLk6GJQsqaUBKTNV-1">
          <mxGeometry x="330" y="644" width="100" height="80" as="geometry" />
        </mxCell>
        <mxCell id="cNULXydj7wnu0Ac0nQnT-31" value="" style="rounded=0;html=1;jettySize=auto;orthogonalLoop=1;fontSize=11;endArrow=block;endFill=0;endSize=8;strokeWidth=1;shadow=0;labelBackgroundColor=none;edgeStyle=orthogonalEdgeStyle;exitX=0.5;exitY=1;exitDx=0;exitDy=0;entryX=0.5;entryY=0;entryDx=0;entryDy=0;" edge="1" parent="WIyWlLk6GJQsqaUBKTNV-1" source="cNULXydj7wnu0Ac0nQnT-26" target="cNULXydj7wnu0Ac0nQnT-30">
          <mxGeometry relative="1" as="geometry">
            <mxPoint x="392" y="560" as="sourcePoint" />
            <mxPoint x="392" y="590" as="targetPoint" />
          </mxGeometry>
        </mxCell>
        <mxCell id="cNULXydj7wnu0Ac0nQnT-33" value="Iterate through all the locations" style="ellipse;whiteSpace=wrap;html=1;aspect=fixed;" vertex="1" parent="WIyWlLk6GJQsqaUBKTNV-1">
          <mxGeometry x="342" y="750" width="80" height="80" as="geometry" />
        </mxCell>
        <mxCell id="cNULXydj7wnu0Ac0nQnT-34" value="Close all doors and clear all alerts" style="rounded=1;whiteSpace=wrap;html=1;fontSize=12;glass=0;strokeWidth=1;shadow=0;" vertex="1" parent="WIyWlLk6GJQsqaUBKTNV-1">
          <mxGeometry x="320" y="940" width="120" height="40" as="geometry" />
        </mxCell>
        <mxCell id="cNULXydj7wnu0Ac0nQnT-35" value="Update UI on about vending status" style="shape=display;whiteSpace=wrap;html=1;" vertex="1" parent="WIyWlLk6GJQsqaUBKTNV-1">
          <mxGeometry x="315" y="850" width="130" height="60" as="geometry" />
        </mxCell>
        <mxCell id="cNULXydj7wnu0Ac0nQnT-38" value="If machine is rotating one?" style="rhombus;whiteSpace=wrap;html=1;shadow=0;fontFamily=Helvetica;fontSize=12;align=center;strokeWidth=1;spacing=6;spacingTop=-4;" vertex="1" parent="WIyWlLk6GJQsqaUBKTNV-1">
          <mxGeometry x="325" y="1009" width="100" height="80" as="geometry" />
        </mxCell>
        <mxCell id="cNULXydj7wnu0Ac0nQnT-42" value="Write the location value to the venging machine register" style="rounded=1;whiteSpace=wrap;html=1;fontSize=12;glass=0;strokeWidth=1;shadow=0;" vertex="1" parent="WIyWlLk6GJQsqaUBKTNV-1">
          <mxGeometry x="490" y="1029" width="120" height="40" as="geometry" />
        </mxCell>
        <mxCell id="cNULXydj7wnu0Ac0nQnT-43" value="&lt;div&gt;if the vending machine register is not pointing to the current location&lt;/div&gt;&lt;div&gt;&lt;br&gt;&lt;/div&gt;" style="rhombus;whiteSpace=wrap;html=1;shadow=0;fontFamily=Helvetica;fontSize=12;align=center;strokeWidth=1;spacing=6;spacingTop=-4;" vertex="1" parent="WIyWlLk6GJQsqaUBKTNV-1">
          <mxGeometry x="500" y="1089" width="100" height="80" as="geometry" />
        </mxCell>
        <mxCell id="cNULXydj7wnu0Ac0nQnT-44" value="Reading status as processing from the cabinet" style="rounded=1;whiteSpace=wrap;html=1;fontSize=12;glass=0;strokeWidth=1;shadow=0;" vertex="1" parent="WIyWlLk6GJQsqaUBKTNV-1">
          <mxGeometry x="490" y="1290" width="120" height="40" as="geometry" />
        </mxCell>
        <mxCell id="cNULXydj7wnu0Ac0nQnT-45" value="loop for 10 seconds for the cabinet to move" style="ellipse;whiteSpace=wrap;html=1;aspect=fixed;" vertex="1" parent="WIyWlLk6GJQsqaUBKTNV-1">
          <mxGeometry x="510" y="1190" width="80" height="80" as="geometry" />
        </mxCell>
        <mxCell id="cNULXydj7wnu0Ac0nQnT-46" value="&lt;div&gt;Status is processing&lt;/div&gt;" style="rhombus;whiteSpace=wrap;html=1;shadow=0;fontFamily=Helvetica;fontSize=12;align=center;strokeWidth=1;spacing=6;spacingTop=-4;" vertex="1" parent="WIyWlLk6GJQsqaUBKTNV-1">
          <mxGeometry x="500" y="1350" width="100" height="80" as="geometry" />
        </mxCell>
        <mxCell id="cNULXydj7wnu0Ac0nQnT-47" value="Close all doors if any doors are open" style="rounded=1;whiteSpace=wrap;html=1;fontSize=12;glass=0;strokeWidth=1;shadow=0;" vertex="1" parent="WIyWlLk6GJQsqaUBKTNV-1">
          <mxGeometry x="320" y="1820" width="120" height="40" as="geometry" />
        </mxCell>
        <mxCell id="cNULXydj7wnu0Ac0nQnT-50" value="loop for the 30 seconds for vending machine status to be ready" style="ellipse;whiteSpace=wrap;html=1;aspect=fixed;" vertex="1" parent="WIyWlLk6GJQsqaUBKTNV-1">
          <mxGeometry x="510" y="1450" width="80" height="80" as="geometry" />
        </mxCell>
        <mxCell id="cNULXydj7wnu0Ac0nQnT-51" value="&lt;div&gt;Status is ready&lt;/div&gt;" style="rhombus;whiteSpace=wrap;html=1;shadow=0;fontFamily=Helvetica;fontSize=12;align=center;strokeWidth=1;spacing=6;spacingTop=-4;" vertex="1" parent="WIyWlLk6GJQsqaUBKTNV-1">
          <mxGeometry x="500" y="1550" width="100" height="80" as="geometry" />
        </mxCell>
        <mxCell id="cNULXydj7wnu0Ac0nQnT-52" value="dispaly the vending machine rotating clockwise or anticlockwise status indiactor" style="shape=display;whiteSpace=wrap;html=1;" vertex="1" parent="WIyWlLk6GJQsqaUBKTNV-1">
          <mxGeometry x="485" y="1650" width="130" height="60" as="geometry" />
        </mxCell>
        <mxCell id="cNULXydj7wnu0Ac0nQnT-53" value="Fail as the cabinet &lt;br&gt;did not stop &lt;br&gt;moving in time" style="rounded=1;whiteSpace=wrap;html=1;fontSize=12;glass=0;strokeWidth=1;shadow=0;" vertex="1" parent="WIyWlLk6GJQsqaUBKTNV-1">
          <mxGeometry x="630" y="1570" width="120" height="40" as="geometry" />
        </mxCell>
        <mxCell id="cNULXydj7wnu0Ac0nQnT-55" value="Fail as the cabinet&lt;br&gt;&amp;nbsp;did not start &lt;br&gt;moving in time" style="rounded=1;whiteSpace=wrap;html=1;fontSize=12;glass=0;strokeWidth=1;shadow=0;" vertex="1" parent="WIyWlLk6GJQsqaUBKTNV-1">
          <mxGeometry x="650" y="1370" width="120" height="40" as="geometry" />
        </mxCell>
        <mxCell id="cNULXydj7wnu0Ac0nQnT-56" value="stop carousel animation in the ui" style="shape=display;whiteSpace=wrap;html=1;" vertex="1" parent="WIyWlLk6GJQsqaUBKTNV-1">
          <mxGeometry x="490" y="1740" width="130" height="60" as="geometry" />
        </mxCell>
        <mxCell id="cNULXydj7wnu0Ac0nQnT-57" value="&lt;div&gt;open the locations of item to be vended&lt;/div&gt;" style="rounded=1;whiteSpace=wrap;html=1;fontSize=12;glass=0;strokeWidth=1;shadow=0;" vertex="1" parent="WIyWlLk6GJQsqaUBKTNV-1">
          <mxGeometry x="322" y="1880" width="120" height="40" as="geometry" />
        </mxCell>
        <mxCell id="cNULXydj7wnu0Ac0nQnT-58" value="Write to the register value" style="rounded=1;whiteSpace=wrap;html=1;fontSize=12;glass=0;strokeWidth=1;shadow=0;" vertex="1" parent="WIyWlLk6GJQsqaUBKTNV-1">
          <mxGeometry x="322" y="1947" width="120" height="40" as="geometry" />
        </mxCell>
        <mxCell id="cNULXydj7wnu0Ac0nQnT-59" value="until the doors are opened and closed" style="ellipse;whiteSpace=wrap;html=1;aspect=fixed;" vertex="1" parent="WIyWlLk6GJQsqaUBKTNV-1">
          <mxGeometry x="340" y="2010" width="80" height="80" as="geometry" />
        </mxCell>
        <mxCell id="cNULXydj7wnu0Ac0nQnT-60" value="Reading the summary of the door state" style="rounded=1;whiteSpace=wrap;html=1;fontSize=12;glass=0;strokeWidth=1;shadow=0;" vertex="1" parent="WIyWlLk6GJQsqaUBKTNV-1">
          <mxGeometry x="320" y="2110" width="120" height="40" as="geometry" />
        </mxCell>
        <mxCell id="cNULXydj7wnu0Ac0nQnT-77" value="" style="edgeStyle=orthogonalEdgeStyle;rounded=0;orthogonalLoop=1;jettySize=auto;html=1;" edge="1" parent="WIyWlLk6GJQsqaUBKTNV-1" source="cNULXydj7wnu0Ac0nQnT-61" target="cNULXydj7wnu0Ac0nQnT-76">
          <mxGeometry relative="1" as="geometry" />
        </mxCell>
        <mxCell id="cNULXydj7wnu0Ac0nQnT-61" value="&lt;div&gt;create the transaction locations&lt;/div&gt;" style="rounded=1;whiteSpace=wrap;html=1;fontSize=12;glass=0;strokeWidth=1;shadow=0;" vertex="1" parent="WIyWlLk6GJQsqaUBKTNV-1">
          <mxGeometry x="510" y="2240" width="120" height="40" as="geometry" />
        </mxCell>
        <mxCell id="cNULXydj7wnu0Ac0nQnT-76" value="&lt;div&gt;when opened create the transaction locations, update the location presence status&lt;/div&gt;&lt;div&gt;&lt;br&gt;&lt;/div&gt;" style="rounded=1;whiteSpace=wrap;html=1;fontSize=12;glass=0;strokeWidth=1;shadow=0;" vertex="1" parent="WIyWlLk6GJQsqaUBKTNV-1">
          <mxGeometry x="510" y="2120" width="120" height="40" as="geometry" />
        </mxCell>
        <mxCell id="cNULXydj7wnu0Ac0nQnT-63" value="Update Carousel UI" style="shape=display;whiteSpace=wrap;html=1;" vertex="1" parent="WIyWlLk6GJQsqaUBKTNV-1">
          <mxGeometry x="312" y="2500" width="130" height="60" as="geometry" />
        </mxCell>
        <mxCell id="cNULXydj7wnu0Ac0nQnT-64" value="Update Transaction" style="shape=parallelogram;perimeter=parallelogramPerimeter;whiteSpace=wrap;html=1;" vertex="1" parent="WIyWlLk6GJQsqaUBKTNV-1">
          <mxGeometry x="315" y="2590" width="120" height="60" as="geometry" />
        </mxCell>
        <mxCell id="cNULXydj7wnu0Ac0nQnT-66" value="Update UI on the success/failure state" style="ellipse;whiteSpace=wrap;html=1;" vertex="1" parent="WIyWlLk6GJQsqaUBKTNV-1">
          <mxGeometry x="310" y="2670" width="120" height="80" as="geometry" />
        </mxCell>
        <mxCell id="cNULXydj7wnu0Ac0nQnT-67" value="&lt;div&gt;&amp;nbsp;push message to rabbitmq&lt;/div&gt;" style="rounded=1;whiteSpace=wrap;html=1;fontSize=12;glass=0;strokeWidth=1;shadow=0;" vertex="1" parent="WIyWlLk6GJQsqaUBKTNV-1">
          <mxGeometry x="650" y="2240" width="120" height="40" as="geometry" />
        </mxCell>
        <mxCell id="cNULXydj7wnu0Ac0nQnT-68" value="&lt;div&gt;summary&lt;/div&gt;" style="rhombus;whiteSpace=wrap;html=1;shadow=0;fontFamily=Helvetica;fontSize=12;align=center;strokeWidth=1;spacing=6;spacingTop=-4;" vertex="1" parent="WIyWlLk6GJQsqaUBKTNV-1">
          <mxGeometry x="328" y="2170" width="100" height="80" as="geometry" />
        </mxCell>
        <mxCell id="cNULXydj7wnu0Ac0nQnT-74" value="" style="rounded=0;html=1;jettySize=auto;orthogonalLoop=1;fontSize=11;endArrow=block;endFill=0;endSize=8;strokeWidth=1;shadow=0;labelBackgroundColor=none;edgeStyle=orthogonalEdgeStyle;exitX=0.5;exitY=1;exitDx=0;exitDy=0;entryX=0.375;entryY=0;entryDx=0;entryDy=0;entryPerimeter=0;" edge="1" parent="WIyWlLk6GJQsqaUBKTNV-1" source="cNULXydj7wnu0Ac0nQnT-68">
          <mxGeometry relative="1" as="geometry">
            <mxPoint x="377.5" y="2257" as="sourcePoint" />
            <mxPoint x="378" y="2500" as="targetPoint" />
          </mxGeometry>
        </mxCell>
        <mxCell id="cNULXydj7wnu0Ac0nQnT-75" value="&lt;span style=&quot;font-size: 12px&quot;&gt;opened&lt;/span&gt;" style="edgeStyle=orthogonalEdgeStyle;rounded=0;html=1;jettySize=auto;orthogonalLoop=1;fontSize=11;endArrow=block;endFill=0;endSize=8;strokeWidth=1;shadow=0;labelBackgroundColor=none;" edge="1" parent="WIyWlLk6GJQsqaUBKTNV-1">
          <mxGeometry y="10" relative="1" as="geometry">
            <mxPoint as="offset" />
            <mxPoint x="377" y="2270" as="sourcePoint" />
            <mxPoint x="510" y="2270" as="targetPoint" />
          </mxGeometry>
        </mxCell>
        <mxCell id="cNULXydj7wnu0Ac0nQnT-78" value="&amp;nbsp;update the location presence status" style="rounded=1;whiteSpace=wrap;html=1;fontSize=12;glass=0;strokeWidth=1;shadow=0;" vertex="1" parent="WIyWlLk6GJQsqaUBKTNV-1">
          <mxGeometry x="790" y="2240" width="120" height="40" as="geometry" />
        </mxCell>
        <mxCell id="cNULXydj7wnu0Ac0nQnT-79" value="&lt;span style=&quot;font-size: 12px&quot;&gt;didnt open&lt;/span&gt;" style="edgeStyle=orthogonalEdgeStyle;rounded=0;html=1;jettySize=auto;orthogonalLoop=1;fontSize=11;endArrow=block;endFill=0;endSize=8;strokeWidth=1;shadow=0;labelBackgroundColor=none;" edge="1" parent="WIyWlLk6GJQsqaUBKTNV-1">
          <mxGeometry y="10" relative="1" as="geometry">
            <mxPoint as="offset" />
            <mxPoint x="377" y="2320" as="sourcePoint" />
            <mxPoint x="510" y="2320" as="targetPoint" />
          </mxGeometry>
        </mxCell>
        <mxCell id="cNULXydj7wnu0Ac0nQnT-80" value="&lt;div&gt;Write to the register value&lt;/div&gt;" style="rounded=1;whiteSpace=wrap;html=1;fontSize=12;glass=0;strokeWidth=1;shadow=0;" vertex="1" parent="WIyWlLk6GJQsqaUBKTNV-1">
          <mxGeometry x="510" y="2304" width="120" height="40" as="geometry" />
        </mxCell>
        <mxCell id="cNULXydj7wnu0Ac0nQnT-81" value="show alert in the UI&amp;nbsp;" style="shape=display;whiteSpace=wrap;html=1;" vertex="1" parent="WIyWlLk6GJQsqaUBKTNV-1">
          <mxGeometry x="645" y="2301" width="130" height="46" as="geometry" />
        </mxCell>
        <mxCell id="cNULXydj7wnu0Ac0nQnT-82" value="&lt;span style=&quot;font-size: 12px&quot;&gt;Time out&lt;/span&gt;" style="edgeStyle=orthogonalEdgeStyle;rounded=0;html=1;jettySize=auto;orthogonalLoop=1;fontSize=11;endArrow=block;endFill=0;endSize=8;strokeWidth=1;shadow=0;labelBackgroundColor=none;" edge="1" parent="WIyWlLk6GJQsqaUBKTNV-1">
          <mxGeometry y="10" relative="1" as="geometry">
            <mxPoint as="offset" />
            <mxPoint x="377" y="2370" as="sourcePoint" />
            <mxPoint x="510" y="2370" as="targetPoint" />
          </mxGeometry>
        </mxCell>
        <mxCell id="cNULXydj7wnu0Ac0nQnT-83" value="&lt;div&gt;&lt;div&gt;Inform the user if there is a time out and close the doors&lt;/div&gt;&lt;/div&gt;" style="rounded=1;whiteSpace=wrap;html=1;fontSize=12;glass=0;strokeWidth=1;shadow=0;" vertex="1" parent="WIyWlLk6GJQsqaUBKTNV-1">
          <mxGeometry x="510" y="2360" width="120" height="40" as="geometry" />
        </mxCell>
        <mxCell id="cNULXydj7wnu0Ac0nQnT-84" value="&lt;div&gt;&lt;div&gt;Mark vending comlete&lt;/div&gt;&lt;/div&gt;" style="rounded=1;whiteSpace=wrap;html=1;fontSize=12;glass=0;strokeWidth=1;shadow=0;" vertex="1" parent="WIyWlLk6GJQsqaUBKTNV-1">
          <mxGeometry x="510" y="2420" width="120" height="40" as="geometry" />
        </mxCell>
        <mxCell id="cNULXydj7wnu0Ac0nQnT-85" value="&lt;span style=&quot;font-size: 12px&quot;&gt;Closed&lt;/span&gt;" style="edgeStyle=orthogonalEdgeStyle;rounded=0;html=1;jettySize=auto;orthogonalLoop=1;fontSize=11;endArrow=block;endFill=0;endSize=8;strokeWidth=1;shadow=0;labelBackgroundColor=none;" edge="1" parent="WIyWlLk6GJQsqaUBKTNV-1">
          <mxGeometry y="10" relative="1" as="geometry">
            <mxPoint as="offset" />
            <mxPoint x="377" y="2440" as="sourcePoint" />
            <mxPoint x="510" y="2440" as="targetPoint" />
          </mxGeometry>
        </mxCell>
        <mxCell id="cNULXydj7wnu0Ac0nQnT-86" value="Show timeout in the UI" style="shape=display;whiteSpace=wrap;html=1;" vertex="1" parent="WIyWlLk6GJQsqaUBKTNV-1">
          <mxGeometry x="650" y="2360" width="130" height="40" as="geometry" />
        </mxCell>
        <mxCell id="cNULXydj7wnu0Ac0nQnT-93" value="" style="rounded=0;html=1;jettySize=auto;orthogonalLoop=1;fontSize=11;endArrow=block;endFill=0;endSize=8;strokeWidth=1;shadow=0;labelBackgroundColor=none;edgeStyle=orthogonalEdgeStyle;exitX=0.5;exitY=1;exitDx=0;exitDy=0;" edge="1" parent="WIyWlLk6GJQsqaUBKTNV-1">
          <mxGeometry relative="1" as="geometry">
            <mxPoint x="549.5" y="1169" as="sourcePoint" />
            <mxPoint x="550" y="1190" as="targetPoint" />
            <Array as="points">
              <mxPoint x="550" y="1190" />
              <mxPoint x="550" y="1190" />
            </Array>
          </mxGeometry>
        </mxCell>
        <mxCell id="cNULXydj7wnu0Ac0nQnT-94" value="" style="rounded=0;html=1;jettySize=auto;orthogonalLoop=1;fontSize=11;endArrow=block;endFill=0;endSize=8;strokeWidth=1;shadow=0;labelBackgroundColor=none;edgeStyle=orthogonalEdgeStyle;exitX=0.5;exitY=1;exitDx=0;exitDy=0;" edge="1" parent="WIyWlLk6GJQsqaUBKTNV-1" source="cNULXydj7wnu0Ac0nQnT-30">
          <mxGeometry relative="1" as="geometry">
            <mxPoint x="379.5" y="730" as="sourcePoint" />
            <mxPoint x="380" y="750" as="targetPoint" />
            <Array as="points">
              <mxPoint x="380" y="742" />
            </Array>
          </mxGeometry>
        </mxCell>
        <mxCell id="cNULXydj7wnu0Ac0nQnT-95" value="" style="rounded=0;html=1;jettySize=auto;orthogonalLoop=1;fontSize=11;endArrow=block;endFill=0;endSize=8;strokeWidth=1;shadow=0;labelBackgroundColor=none;edgeStyle=orthogonalEdgeStyle;exitX=0.5;exitY=1;exitDx=0;exitDy=0;" edge="1" parent="WIyWlLk6GJQsqaUBKTNV-1">
          <mxGeometry relative="1" as="geometry">
            <mxPoint x="379.5" y="830" as="sourcePoint" />
            <mxPoint x="380" y="850" as="targetPoint" />
            <Array as="points">
              <mxPoint x="380" y="850" />
              <mxPoint x="380" y="850" />
            </Array>
          </mxGeometry>
        </mxCell>
        <mxCell id="cNULXydj7wnu0Ac0nQnT-96" value="" style="rounded=0;html=1;jettySize=auto;orthogonalLoop=1;fontSize=11;endArrow=block;endFill=0;endSize=8;strokeWidth=1;shadow=0;labelBackgroundColor=none;edgeStyle=orthogonalEdgeStyle;exitX=0.5;exitY=1;exitDx=0;exitDy=0;entryX=0.5;entryY=0;entryDx=0;entryDy=0;" edge="1" parent="WIyWlLk6GJQsqaUBKTNV-1">
          <mxGeometry relative="1" as="geometry">
            <mxPoint x="374.5" y="910" as="sourcePoint" />
            <mxPoint x="374.5" y="940" as="targetPoint" />
          </mxGeometry>
        </mxCell>
        <mxCell id="cNULXydj7wnu0Ac0nQnT-97" value="" style="rounded=0;html=1;jettySize=auto;orthogonalLoop=1;fontSize=11;endArrow=block;endFill=0;endSize=8;strokeWidth=1;shadow=0;labelBackgroundColor=none;edgeStyle=orthogonalEdgeStyle;exitX=0.5;exitY=1;exitDx=0;exitDy=0;entryX=0.5;entryY=0;entryDx=0;entryDy=0;" edge="1" parent="WIyWlLk6GJQsqaUBKTNV-1">
          <mxGeometry relative="1" as="geometry">
            <mxPoint x="374.5" y="980" as="sourcePoint" />
            <mxPoint x="374.5" y="1010" as="targetPoint" />
          </mxGeometry>
        </mxCell>
        <mxCell id="cNULXydj7wnu0Ac0nQnT-98" value="" style="rounded=0;html=1;jettySize=auto;orthogonalLoop=1;fontSize=11;endArrow=block;endFill=0;endSize=8;strokeWidth=1;shadow=0;labelBackgroundColor=none;edgeStyle=orthogonalEdgeStyle;exitX=0.5;exitY=1;exitDx=0;exitDy=0;entryX=0.5;entryY=0;entryDx=0;entryDy=0;" edge="1" parent="WIyWlLk6GJQsqaUBKTNV-1" source="cNULXydj7wnu0Ac0nQnT-38" target="cNULXydj7wnu0Ac0nQnT-47">
          <mxGeometry relative="1" as="geometry">
            <mxPoint x="413" y="1670" as="sourcePoint" />
            <mxPoint x="413" y="1700" as="targetPoint" />
            <Array as="points">
              <mxPoint x="375" y="1820" />
            </Array>
          </mxGeometry>
        </mxCell>
        <mxCell id="cNULXydj7wnu0Ac0nQnT-99" value="Yes" style="edgeStyle=orthogonalEdgeStyle;rounded=0;html=1;jettySize=auto;orthogonalLoop=1;fontSize=11;endArrow=block;endFill=0;endSize=8;strokeWidth=1;shadow=0;labelBackgroundColor=none;entryX=0;entryY=0.5;entryDx=0;entryDy=0;exitX=1;exitY=0.5;exitDx=0;exitDy=0;" edge="1" parent="WIyWlLk6GJQsqaUBKTNV-1" target="cNULXydj7wnu0Ac0nQnT-42">
          <mxGeometry x="0.0073" y="-11" relative="1" as="geometry">
            <mxPoint as="offset" />
            <mxPoint x="422" y="1048.5" as="sourcePoint" />
            <mxPoint x="460" y="1048.5" as="targetPoint" />
          </mxGeometry>
        </mxCell>
        <mxCell id="cNULXydj7wnu0Ac0nQnT-101" value="" style="rounded=0;html=1;jettySize=auto;orthogonalLoop=1;fontSize=11;endArrow=block;endFill=0;endSize=8;strokeWidth=1;shadow=0;labelBackgroundColor=none;edgeStyle=orthogonalEdgeStyle;exitX=0.5;exitY=1;exitDx=0;exitDy=0;" edge="1" parent="WIyWlLk6GJQsqaUBKTNV-1">
          <mxGeometry relative="1" as="geometry">
            <mxPoint x="549.5" y="1069" as="sourcePoint" />
            <mxPoint x="549.5" y="1090" as="targetPoint" />
            <Array as="points">
              <mxPoint x="549.5" y="1090" />
              <mxPoint x="549.5" y="1090" />
            </Array>
          </mxGeometry>
        </mxCell>
        <mxCell id="cNULXydj7wnu0Ac0nQnT-102" value="" style="rounded=0;html=1;jettySize=auto;orthogonalLoop=1;fontSize=11;endArrow=block;endFill=0;endSize=8;strokeWidth=1;shadow=0;labelBackgroundColor=none;edgeStyle=orthogonalEdgeStyle;exitX=0.5;exitY=1;exitDx=0;exitDy=0;" edge="1" parent="WIyWlLk6GJQsqaUBKTNV-1">
          <mxGeometry relative="1" as="geometry">
            <mxPoint x="770" y="1520" as="sourcePoint" />
            <mxPoint x="770" y="1541" as="targetPoint" />
            <Array as="points">
              <mxPoint x="770" y="1541" />
              <mxPoint x="770" y="1541" />
            </Array>
          </mxGeometry>
        </mxCell>
        <mxCell id="cNULXydj7wnu0Ac0nQnT-103" value="" style="rounded=0;html=1;jettySize=auto;orthogonalLoop=1;fontSize=11;endArrow=block;endFill=0;endSize=8;strokeWidth=1;shadow=0;labelBackgroundColor=none;edgeStyle=orthogonalEdgeStyle;exitX=0.5;exitY=1;exitDx=0;exitDy=0;" edge="1" parent="WIyWlLk6GJQsqaUBKTNV-1">
          <mxGeometry relative="1" as="geometry">
            <mxPoint x="549.5" y="1270" as="sourcePoint" />
            <mxPoint x="549.5" y="1291" as="targetPoint" />
            <Array as="points">
              <mxPoint x="549.5" y="1291" />
              <mxPoint x="549.5" y="1291" />
            </Array>
          </mxGeometry>
        </mxCell>
        <mxCell id="cNULXydj7wnu0Ac0nQnT-104" value="" style="rounded=0;html=1;jettySize=auto;orthogonalLoop=1;fontSize=11;endArrow=block;endFill=0;endSize=8;strokeWidth=1;shadow=0;labelBackgroundColor=none;edgeStyle=orthogonalEdgeStyle;exitX=0.5;exitY=1;exitDx=0;exitDy=0;" edge="1" parent="WIyWlLk6GJQsqaUBKTNV-1">
          <mxGeometry relative="1" as="geometry">
            <mxPoint x="549.5" y="1330" as="sourcePoint" />
            <mxPoint x="549.5" y="1351" as="targetPoint" />
            <Array as="points">
              <mxPoint x="549.5" y="1351" />
              <mxPoint x="549.5" y="1351" />
            </Array>
          </mxGeometry>
        </mxCell>
        <mxCell id="cNULXydj7wnu0Ac0nQnT-105" value="" style="rounded=0;html=1;jettySize=auto;orthogonalLoop=1;fontSize=11;endArrow=block;endFill=0;endSize=8;strokeWidth=1;shadow=0;labelBackgroundColor=none;edgeStyle=orthogonalEdgeStyle;exitX=0.5;exitY=1;exitDx=0;exitDy=0;" edge="1" parent="WIyWlLk6GJQsqaUBKTNV-1">
          <mxGeometry relative="1" as="geometry">
            <mxPoint x="549.5" y="1430" as="sourcePoint" />
            <mxPoint x="549.5" y="1451" as="targetPoint" />
            <Array as="points">
              <mxPoint x="549.5" y="1451" />
              <mxPoint x="549.5" y="1451" />
            </Array>
          </mxGeometry>
        </mxCell>
        <mxCell id="cNULXydj7wnu0Ac0nQnT-107" value="Yes" style="edgeLabel;html=1;align=center;verticalAlign=middle;resizable=0;points=[];" vertex="1" connectable="0" parent="cNULXydj7wnu0Ac0nQnT-105">
          <mxGeometry x="-0.5238" y="4" relative="1" as="geometry">
            <mxPoint as="offset" />
          </mxGeometry>
        </mxCell>
        <mxCell id="cNULXydj7wnu0Ac0nQnT-112" value="No" style="edgeStyle=orthogonalEdgeStyle;rounded=0;html=1;jettySize=auto;orthogonalLoop=1;fontSize=11;endArrow=block;endFill=0;endSize=8;strokeWidth=1;shadow=0;labelBackgroundColor=none;entryX=0;entryY=0.5;entryDx=0;entryDy=0;exitX=1;exitY=0.5;exitDx=0;exitDy=0;" edge="1" parent="WIyWlLk6GJQsqaUBKTNV-1" source="cNULXydj7wnu0Ac0nQnT-46" target="cNULXydj7wnu0Ac0nQnT-55">
          <mxGeometry y="10" relative="1" as="geometry">
            <mxPoint as="offset" />
            <mxPoint x="420" y="1389.5" as="sourcePoint" />
            <mxPoint x="658" y="1389.5" as="targetPoint" />
          </mxGeometry>
        </mxCell>
        <mxCell id="cNULXydj7wnu0Ac0nQnT-113" value="" style="rounded=0;html=1;jettySize=auto;orthogonalLoop=1;fontSize=11;endArrow=block;endFill=0;endSize=8;strokeWidth=1;shadow=0;labelBackgroundColor=none;edgeStyle=orthogonalEdgeStyle;exitX=0.5;exitY=1;exitDx=0;exitDy=0;" edge="1" parent="WIyWlLk6GJQsqaUBKTNV-1">
          <mxGeometry relative="1" as="geometry">
            <mxPoint x="549.5" y="1530" as="sourcePoint" />
            <mxPoint x="549.5" y="1551" as="targetPoint" />
            <Array as="points">
              <mxPoint x="549.5" y="1551" />
              <mxPoint x="549.5" y="1551" />
            </Array>
          </mxGeometry>
        </mxCell>
        <mxCell id="cNULXydj7wnu0Ac0nQnT-114" value="No" style="edgeStyle=orthogonalEdgeStyle;rounded=0;html=1;jettySize=auto;orthogonalLoop=1;fontSize=11;endArrow=block;endFill=0;endSize=8;strokeWidth=1;shadow=0;labelBackgroundColor=none;exitX=1;exitY=0.5;exitDx=0;exitDy=0;" edge="1" parent="WIyWlLk6GJQsqaUBKTNV-1">
          <mxGeometry y="10" relative="1" as="geometry">
            <mxPoint as="offset" />
            <mxPoint x="600" y="1589.5" as="sourcePoint" />
            <mxPoint x="630" y="1590" as="targetPoint" />
          </mxGeometry>
        </mxCell>
        <mxCell id="cNULXydj7wnu0Ac0nQnT-115" value="" style="rounded=0;html=1;jettySize=auto;orthogonalLoop=1;fontSize=11;endArrow=block;endFill=0;endSize=8;strokeWidth=1;shadow=0;labelBackgroundColor=none;edgeStyle=orthogonalEdgeStyle;exitX=0.5;exitY=1;exitDx=0;exitDy=0;" edge="1" parent="WIyWlLk6GJQsqaUBKTNV-1">
          <mxGeometry relative="1" as="geometry">
            <mxPoint x="549.5" y="1630" as="sourcePoint" />
            <mxPoint x="549.5" y="1651" as="targetPoint" />
            <Array as="points">
              <mxPoint x="549.5" y="1651" />
              <mxPoint x="549.5" y="1651" />
            </Array>
          </mxGeometry>
        </mxCell>
      </root>
    </mxGraphModel>
  </diagram>
</mxfile>
